<?xml version="1.0" encoding="utf-8"?><!-- Uploaded to: SVG Repo, www.svgrepo.com, Generator: SVG Repo Mixer Tools -->
<svg width="800px" height="800px" viewBox="0 0 24 24" fill="none" xmlns="http://www.w3.org/2000/svg">
<path d="M11 19H6.2C5.0799 19 4.51984 19 4.09202 18.782C3.71569 18.5903 3.40973 18.2843 3.21799 17.908C3 17.4802 3 16.9201 3 15.8V8.2C3 7.0799 3 6.51984 3.21799 6.09202C3.40973 5.71569 3.71569 5.40973 4.09202 5.21799C4.51984 5 5.0799 5 6.2 5H17.8C18.9201 5 19.4802 5 19.908 5.21799C20.2843 5.40973 20.5903 5.71569 20.782 6.09202C21 6.51984 21 7.0799 21 8.2V11.1981M20.6067 8.26229L15.5499 11.6335C14.2669 12.4888 13.6254 12.9165 12.932 13.0827C12.3192 13.2295 11.6804 13.2295 11.0677 13.0827C10.3743 12.9165 9.73279 12.4888 8.44975 11.6335L3.14746 8.09863M21 15.1667C21 15.1667 20.6941 15.1667 20.625 15.1667C19.6006 15.1667 18.7077 14.7524 18 14C17.2923 14.7524 16.3995 15.1667 15.375 15.1667C15.306 15.1667 15 15.1667 15 15.1667C15 15.1667 15 15.9444 15 16.3979C15 18.6121 16.2748 20.4725 18 21C19.7252 20.4725 21 18.6121 21 16.3979C21 15.9444 21 15.1667 21 15.1667Z" stroke="#000000" stroke-width="2" stroke-linecap="round" stroke-linejoin="round"/>
</svg>