<?xml version="1.0" encoding="iso-8859-1"?>
<!-- Uploaded to: SVG Repo, www.svgrepo.com, Generator: SVG Repo Mixer Tools -->
<svg height="800px" width="800px" version="1.1" id="Layer_1" xmlns="http://www.w3.org/2000/svg" xmlns:xlink="http://www.w3.org/1999/xlink" 
	 viewBox="0 0 511.999 511.999" xml:space="preserve">
<g>
	<circle style="fill:#FFFFFF;" cx="255.998" cy="255.998" r="219.771"/>
	<path style="fill:#FFFFFF;" d="M102.662,359.826l257.164-257.162c-29.612-20.089-65.347-31.829-103.826-31.829
		c-102.265,0-185.167,82.903-185.167,185.167C70.833,294.478,82.573,330.214,102.662,359.826z"/>
</g>
<path style="opacity:0.1;enable-background:new    ;" d="M83.606,323.7c-0.489-5.961-0.745-11.987-0.745-18.074
	c0-120.681,97.832-218.513,218.513-218.513c12.722,0,25.189,1.088,37.314,3.175c-24.889-12.445-52.969-19.454-82.689-19.454
	c-102.265,0-185.167,82.903-185.167,185.167C70.833,279.895,75.363,302.73,83.606,323.7z"/>
<path style="fill:#FF6465;" d="M255.999,0C114.615,0,0,114.615,0,255.999s114.615,255.999,255.999,255.999
	s255.999-114.615,255.999-255.999S397.385,0,255.999,0z M70.833,255.999c0-102.265,82.903-185.167,185.167-185.167
	c38.479,0,74.214,11.74,103.826,31.829L102.662,359.826C82.573,330.214,70.833,294.478,70.833,255.999z M255.999,441.167
	c-38.479,0-74.214-11.74-103.826-31.829l257.165-257.163c20.089,29.612,31.829,65.347,31.829,103.826
	C441.167,358.264,358.264,441.167,255.999,441.167z"/>
</svg>