<?xml version="1.0" encoding="utf-8"?><!-- Uploaded to: SVG Repo, www.svgrepo.com, Generator: SVG Repo Mixer Tools -->
<svg width="800px" height="800px" viewBox="0 0 24 24" fill="none" xmlns="http://www.w3.org/2000/svg">
<path fill-rule="evenodd" clip-rule="evenodd" d="M17 6.5C17 9.53757 14.7614 12 12 12C9.23858 12 7 9.53757 7 6.5C7 3.46243 9.23858 1 12 1C14.7614 1 17 3.46243 17 6.5ZM9 6.5C9 8.32254 10.3431 9.8 12 9.8C13.6569 9.8 15 8.32254 15 6.5C15 4.67746 13.6569 3.2 12 3.2C10.3431 3.2 9 4.67746 9 6.5Z" fill="#0F0F0F"/>
<path d="M11.6759 14.9952C10.7868 14.9679 10.1945 14.8277 9.72609 14.6447C9.26355 14.464 8.89822 14.237 8.41685 13.9378C8.32296 13.8795 8.22448 13.8183 8.12019 13.7543C7.07587 13.1132 5.73464 13.2622 4.86415 14.1419C4.48443 14.5256 4.04036 15.0219 3.6849 15.5626C3.34603 16.0781 3 16.7638 3 17.5V20.0003C3 21.6574 4.34334 23 6 23H13.101C12.5151 22.4259 12.0297 21.7496 11.6736 21H6C5.44752 21 5 20.5524 5 20.0003V17.5C5 17.3549 5.08549 17.073 5.35613 16.6613C5.61017 16.2748 5.95358 15.8844 6.28579 15.5487C6.49412 15.3381 6.81106 15.2974 7.07389 15.4588C7.15661 15.5095 7.24087 15.5621 7.32694 15.6159C7.80938 15.9171 8.34918 16.254 8.99836 16.5076C9.58761 16.7378 10.2519 16.8974 11.0761 16.9645C11.1791 16.2695 11.3843 15.6078 11.6759 14.9952Z" fill="#0F0F0F"/>
<path d="M15.2929 17.7071C15.6834 17.3166 16.3166 17.3166 16.7071 17.7071L17.3483 18.3483L19.2473 16.4492C19.6379 16.0586 20.271 16.0586 20.6616 16.4492C21.0521 16.8397 21.0521 17.4729 20.6616 17.8634L18.1213 20.4036C18.0349 20.4901 17.9365 20.5574 17.8316 20.6056C17.4486 20.8294 16.9487 20.7771 16.6203 20.4487L15.2929 19.1213C14.9024 18.7308 14.9024 18.0976 15.2929 17.7071Z" fill="#0F0F0F"/>
<path fill-rule="evenodd" clip-rule="evenodd" d="M24 18C24 21.3137 21.3137 24 18 24C14.6863 24 12 21.3137 12 18C12 14.6863 14.6863 12 18 12C21.3137 12 24 14.6863 24 18ZM13.9819 18C13.9819 20.2191 15.7809 22.0181 18 22.0181C20.2191 22.0181 22.0181 20.2191 22.0181 18C22.0181 15.7809 20.2191 13.9819 18 13.9819C15.7809 13.9819 13.9819 15.7809 13.9819 18Z" fill="#0F0F0F"/>
</svg>